C:\Users\r0593348\3dpredictsim\Results\batch_windlass\Pog_s1_tmt_bCst_d05_k800_WL40_ig24_pas_GRF.mot
nRows=12
nColumns=19

name C:\Users\r0593348\3dpredictsim\Results\batch_windlass\Pog_s1_tmt_bCst_d05_k800_WL40_ig24_pas_GRF.mot
datacolumns 19
datarows 12
range 0.5363939415 0.6544006086
endheader
time 	ground_force_vx	ground_force_vy	ground_force_vz	ground_force_px	ground_force_py	ground_force_pz	1_ground_force_vx	1_ground_force_vy	1_ground_force_vz	1_ground_force_px	1_ground_force_py	1_ground_force_pz	ground_torque_x	ground_torque_y	ground_torque_z	1_ground_torque_x	1_ground_torque_y	1_ground_torque_z
        0.5363939415	       98.8935306491	      454.1497771420	       -5.3634941516	        0.3441480074	        0.0000000000	        0.0341782842	      -40.1274385143	       25.6110397894	       -7.0008774870	        0.8006567284	        0.0000000000	       -0.0552224243	        0.0000000000	        0.0000000000	        0.0000000000	        0.0000000000	        0.0000000000	        0.0000000000	
        0.5471218203	       71.3220816157	      360.3430107833	       -2.3760235225	        0.3498883862	        0.0000000000	        0.0314568161	      -73.2621194792	       51.7289974028	      -14.0836000564	        0.8131581557	        0.0000000000	       -0.0520901942	        0.0000000000	        0.0000000000	        0.0000000000	        0.0000000000	        0.0000000000	        0.0000000000	
        0.5578496991	       39.4735550399	      252.8117276167	        5.5849785017	        0.3594827423	        0.0000000000	        0.0264878943	     -141.3900670350	      120.6565419728	      -30.7032039585	        0.8275354423	        0.0000000000	       -0.0510482386	        0.0000000000	        0.0000000000	        0.0000000000	        0.0000000000	        0.0000000000	        0.0000000000	
        0.5685775779	       16.6901286077	      172.4254734318	       14.1554679053	        0.3715400512	        0.0000000000	        0.0194230529	     -142.3102572224	      290.6031037282	      -33.6956217227	        0.8431270282	        0.0000000000	       -0.0519171973	        0.0000000000	        0.0000000000	        0.0000000000	        0.0000000000	        0.0000000000	        0.0000000000	
        0.5793054568	        2.2982820385	      138.7861365353	       15.7624806136	        0.3709003065	        0.0000000000	        0.0196349895	      -93.3836049498	      593.8346431179	        1.1838737977	        0.8522080626	        0.0000000000	       -0.0514795889	        0.0000000000	        0.0000000000	        0.0000000000	        0.0000000000	        0.0000000000	        0.0000000000	
        0.5900333356	       -4.6767836691	       94.3478921461	       12.6814533825	        0.3708682406	        0.0000000000	        0.0195222456	     -115.7976960228	      877.5449637573	       18.2173461968	        0.8628298172	        0.0000000000	       -0.0505657600	        0.0000000000	        0.0000000000	        0.0000000000	        0.0000000000	        0.0000000000	        0.0000000000	
        0.6007612144	      -15.4969649948	       41.0890572513	        7.3116467659	        0.3692584550	        0.0000000000	        0.0194447401	     -138.8357480557	     1013.9033083168	       20.3240927048	        0.8706114845	        0.0000000000	       -0.0493694104	        0.0000000000	        0.0000000000	        0.0000000000	        0.0000000000	        0.0000000000	        0.0000000000	
        0.6114890933	        0.1314785825	       -0.1303326947	       -0.0061281933	        0.0000000000	        0.0000000000	        0.0000000000	     -137.7330737648	     1007.7949013116	       18.1862750125	        0.8747542459	        0.0000000000	       -0.0485396308	        0.0000000000	        0.0000000000	        0.0000000000	        0.0000000000	        0.0000000000	        0.0000000000	
        0.6222169721	        0.0002810474	       -0.0002328017	        0.0000034657	        0.0000000000	        0.0000000000	        0.0000000000	     -118.7036104152	      940.0879753526	       16.7497766744	        0.8774780472	        0.0000000000	       -0.0479520695	        0.0000000000	        0.0000000000	        0.0000000000	        0.0000000000	        0.0000000000	        0.0000000000	
        0.6329448509	        0.0000537122	       -0.0000392100	        0.0000015068	        0.0000000000	        0.0000000000	        0.0000000000	     -100.8625097112	      863.1686460265	       16.5504726826	        0.8801413555	        0.0000000000	       -0.0475189238	        0.0000000000	        0.0000000000	        0.0000000000	        0.0000000000	        0.0000000000	        0.0000000000	
        0.6436727297	        0.0001476498	       -0.0000976152	        0.0000056477	        0.0000000000	        0.0000000000	        0.0000000000	      -85.7991133249	      798.9927094644	       16.7765176585	        0.8826700551	        0.0000000000	       -0.0472335142	        0.0000000000	        0.0000000000	        0.0000000000	        0.0000000000	        0.0000000000	        0.0000000000	
        0.6544006086	        0.0027100963	       -0.0016525633	        0.0001269753	        0.0000000000	        0.0000000000	        0.0000000000	      -72.0133241114	      747.4629687968	       18.0420298285	        0.8851563795	        0.0000000000	       -0.0470575057	        0.0000000000	        0.0000000000	        0.0000000000	        0.0000000000	        0.0000000000	        0.0000000000	
